<svg width="116" height="134" viewBox="0 0 116 134" fill="none" xmlns="http://www.w3.org/2000/svg">
<path d="M65.2069 113.564H50.1935V129.224C50.1935 131.543 52.0738 133.423 54.3931 133.423H61.0066C63.3259 133.423 65.2065 131.543 65.2065 129.224V113.564H65.2069Z" fill="url(#paint0_linear_12601_2009)"/>
<path d="M57.7003 113.564H50.1936V123.504C50.726 122.888 51.4988 122.101 52.4792 121.396C54.6581 119.828 57.7003 121.406 57.7003 124.091V133.423H61.0068C63.3261 133.423 65.2067 131.543 65.2067 129.224V123.268V113.564H57.7003V113.564Z" fill="#845E5A"/>
<path d="M114.844 107.812C114.64 107.327 114.329 106.894 113.955 106.523C110.899 103.497 93.3931 85.8901 88.3911 74.756H57.621H26.8512C21.8486 85.8904 4.34248 103.497 1.28664 106.523C0.912844 106.894 0.601941 107.327 0.398024 107.812C-0.0633027 108.909 -0.0727038 109.892 0.113383 110.709C0.470644 112.278 1.76223 113.453 3.33359 113.801C7.5883 114.744 10.2992 112.248 13.8365 112.248C19.6052 112.248 17.6221 119.607 23.3908 119.607C29.1601 119.607 28.773 115.334 34.542 115.334C40.311 115.334 40.312 121.177 46.0817 121.177C51.852 121.177 51.8513 115.956 57.6213 115.956C63.3916 115.956 63.391 121.177 69.161 121.177C74.9306 121.177 74.9313 115.334 80.7009 115.334C86.4703 115.334 86.0829 119.607 91.8519 119.607C97.6209 119.607 95.6378 112.248 101.406 112.248C104.944 112.248 107.654 114.744 111.909 113.801C113.48 113.453 114.772 112.278 115.129 110.709C115.315 109.892 115.305 108.909 114.844 107.812Z" fill="url(#paint1_linear_12601_2009)"/>
<path d="M114.846 107.817C114.642 107.331 114.332 106.896 113.958 106.526C111.706 104.296 101.564 94.1029 94.3983 84.4383C94.0871 84.0182 93.7817 83.5997 93.4824 83.1824C93.4746 83.1717 93.4665 83.1604 93.4588 83.1493C93.1722 82.7499 92.893 82.3518 92.6191 81.9557C92.5987 81.9262 92.5776 81.8963 92.5575 81.8672C92.3011 81.495 92.0521 81.1254 91.8083 80.7578C91.7739 80.7059 91.738 80.6534 91.7039 80.6015C91.4779 80.2582 91.2604 79.9191 91.0468 79.5806C91.0011 79.508 90.9531 79.4351 90.908 79.3631C90.7112 79.0483 90.5235 78.7374 90.3387 78.4281C90.2843 78.337 90.2266 78.2446 90.1734 78.1539C90.0022 77.8631 89.8414 77.5774 89.6816 77.2918C89.6242 77.1887 89.5623 77.0834 89.5062 76.9809C89.3512 76.6986 89.2086 76.4217 89.0666 76.1452C89.016 76.0466 88.9599 75.9455 88.911 75.8476C88.7256 75.4777 88.5515 75.1133 88.391 74.7563H72.3434H57.6209H26.8511C25.5436 77.6666 23.378 81.0194 20.8435 84.438C22.8729 83.942 24.6816 82.9672 27.1688 83.6719C31.3155 84.8465 29.9497 88.98 35.0087 90.031C39.2923 90.9209 41.8291 86.9904 46.6687 87.5457C52.3864 88.2016 51.4499 92.5082 57.6212 92.5082C63.7925 92.5082 62.8559 88.2019 68.5737 87.5457C68.7157 87.5292 68.8554 87.5172 68.9936 87.5085C72.4822 87.2854 75.5653 89.7775 76.2795 93.1997C77.2556 97.8813 78.2376 102.675 79.2157 107.552C79.6608 109.772 79.6407 112.075 79.0422 114.259C78.909 114.744 78.7505 115.215 78.5615 115.658C79.1813 115.455 79.8812 115.335 80.7011 115.335C80.943 115.335 81.1696 115.345 81.391 115.36C81.4659 115.365 81.5395 115.371 81.6128 115.377C81.7885 115.393 81.9587 115.412 82.1221 115.436C82.1798 115.445 82.2368 115.454 82.2929 115.463C82.455 115.491 82.6103 115.523 82.7607 115.558C82.8223 115.573 82.8836 115.588 82.9432 115.603C83.106 115.646 83.2645 115.692 83.4149 115.744C83.4561 115.758 83.4947 115.774 83.5352 115.788C83.6581 115.833 83.7774 115.88 83.8931 115.93C83.9405 115.951 83.9881 115.97 84.0345 115.991C84.1713 116.054 84.3042 116.12 84.4323 116.188C84.4702 116.208 84.5065 116.23 84.5441 116.251C84.6488 116.309 84.7513 116.37 84.8511 116.432C84.8855 116.453 84.9208 116.474 84.9545 116.496C85.0748 116.573 85.1922 116.653 85.3073 116.734C87.0738 117.98 88.2902 119.607 91.8521 119.607C97.6211 119.607 95.638 112.249 101.406 112.249C104.944 112.249 107.655 114.744 111.909 113.801C113.481 113.454 114.773 112.279 115.129 110.71C115.314 109.893 115.305 108.912 114.846 107.817Z" fill="#16606E"/>
<path d="M25.4802 115.094C29.2269 115.094 32.2643 112.056 32.2643 108.31C32.2643 104.563 29.2269 101.526 25.4802 101.526C21.7335 101.526 18.6962 104.563 18.6962 108.31C18.6962 112.056 21.7335 115.094 25.4802 115.094Z" fill="#16606E"/>
<path d="M24.5527 112.148C28.0576 112.148 30.8988 109.307 30.8988 105.802C30.8988 102.297 28.0576 99.4562 24.5527 99.4562C21.0479 99.4562 18.2067 102.297 18.2067 105.802C18.2067 109.307 21.0479 112.148 24.5527 112.148Z" fill="url(#paint2_radial_12601_2009)"/>
<path d="M23.0102 106.577C24.2899 106.577 25.3272 105.54 25.3272 104.26C25.3272 102.98 24.2899 101.943 23.0102 101.943C21.7306 101.943 20.6932 102.98 20.6932 104.26C20.6932 105.54 21.7306 106.577 23.0102 106.577Z" fill="#FFB6B6"/>
<path d="M88.1697 97.7156C91.6743 97.7156 94.5154 94.8745 94.5154 91.3699C94.5154 87.8652 91.6743 85.0241 88.1697 85.0241C84.665 85.0241 81.8239 87.8652 81.8239 91.3699C81.8239 94.8745 84.665 97.7156 88.1697 97.7156Z" fill="url(#paint3_radial_12601_2009)"/>
<path d="M86.6273 92.1444C87.9069 92.1444 88.9443 91.107 88.9443 89.8274C88.9443 88.5477 87.9069 87.5103 86.6273 87.5103C85.3476 87.5103 84.3103 88.5477 84.3103 89.8274C84.3103 91.107 85.3476 92.1444 86.6273 92.1444Z" fill="#FFB6B6"/>
<path d="M79.3895 124.58C82.5638 124.58 85.1371 122.006 85.1371 118.832C85.1371 115.658 82.5638 113.084 79.3895 113.084C76.2152 113.084 73.6419 115.658 73.6419 118.832C73.6419 122.006 76.2152 124.58 79.3895 124.58Z" fill="url(#paint4_radial_12601_2009)"/>
<path d="M77.9923 119.534C79.1514 119.534 80.0911 118.594 80.0911 117.435C80.0911 116.276 79.1514 115.336 77.9923 115.336C76.8331 115.336 75.8935 116.276 75.8935 117.435C75.8935 118.594 76.8331 119.534 77.9923 119.534Z" fill="#FFB6B6"/>
<path d="M81.8778 105.087C65.5226 105.087 51.9292 102.355 42.1376 99.4718C29.095 95.6308 20.5152 90.9686 17.3258 89.0724C16.5649 88.6198 16.3409 87.6216 16.8311 86.8847C17.2889 86.1964 18.2031 85.9831 18.9157 86.402C21.9806 88.2042 30.5338 92.8385 43.14 96.5369C57.6665 100.799 80.7691 104.714 108.887 99.4679C109.725 99.3117 110.534 99.8528 110.699 100.689V100.689C110.865 101.532 110.313 102.354 109.469 102.511C99.6238 104.348 90.3775 105.087 81.8778 105.087Z" fill="white"/>
<path d="M97.3804 73.8661C93.5712 69.7871 79.1689 53.9396 76.8846 45.1056H57.6208H38.3569C36.0727 53.9396 21.6707 69.7871 17.8611 73.8661C16.9002 74.8951 16.5323 76.3786 17.0156 77.7006C17.5736 79.2272 18.8713 79.7949 18.8713 79.7949C23.1451 81.6739 25.2592 78.1538 29.1479 79.3323C33.0249 80.5068 31.7482 84.6403 36.4782 85.6913C40.4833 86.5816 42.8551 82.6507 47.3802 83.2061C52.7261 83.8622 51.8508 88.1685 57.6208 88.1685C63.3911 88.1685 62.5154 83.8626 67.8617 83.2061C72.3868 82.6507 74.7586 86.5816 78.7633 85.6913C83.4933 84.6403 82.2166 80.5068 86.0937 79.3323C89.9827 78.1538 92.0967 81.6739 96.3703 79.7949C96.3703 79.7949 97.6683 79.2272 98.2259 77.7006C98.7093 76.3786 98.3414 74.8951 97.3804 73.8661Z" fill="url(#paint5_linear_12601_2009)"/>
<path d="M97.3787 73.8641C94.6872 70.982 86.7228 62.2382 81.4667 54.2368C81.0669 53.6283 80.6831 53.024 80.3177 52.4269C80.2778 52.3617 80.2393 52.2969 80.1997 52.2317C80.0214 51.9377 79.8483 51.6456 79.68 51.3557C79.6116 51.238 79.5442 51.1207 79.4777 51.004C79.3782 50.8289 79.2803 50.6545 79.185 50.4817C79.0735 50.2791 78.9645 50.0781 78.8589 49.8784C78.795 49.7575 78.7321 49.6372 78.6702 49.5176C78.5454 49.2757 78.4238 49.0352 78.3087 48.7978C78.2678 48.7136 78.2296 48.6302 78.1897 48.5469C78.085 48.3255 77.9835 48.106 77.8873 47.8895C77.8623 47.8327 77.8357 47.775 77.8111 47.7186C77.6976 47.4573 77.5929 47.2009 77.4937 46.9474C77.4697 46.8858 77.4454 46.8245 77.422 46.7635C77.3251 46.5084 77.235 46.2571 77.1536 46.0104C77.138 45.9638 77.1241 45.918 77.1092 45.8714C77.0259 45.6117 76.949 45.3552 76.8845 45.1063H65.6577H57.6207H38.3568C37.6854 47.7027 35.9633 50.9061 33.775 54.2378C36.2972 53.6368 37.7775 51.5593 40.5055 52.3137C45.2958 53.6384 43.5792 57.8023 48.2628 58.583C51.8228 59.1762 53.3063 54.2038 57.6207 54.4132C63.1349 54.4132 68.2594 58.5343 70.7427 67.4723C71.8219 71.3568 72.587 75.2179 73.393 79.2895C73.804 81.3663 72.2038 83.3234 70.0875 83.2797L70.0522 83.2787C71.7334 83.5928 73.1362 84.4383 74.5659 85.0692C74.5662 85.0698 74.5662 85.0705 74.5662 85.0711C74.5915 85.0822 74.6171 85.0919 74.6424 85.1032C74.7244 85.1389 74.8068 85.1733 74.8891 85.2073C74.9789 85.2443 75.069 85.2809 75.1592 85.3156C75.2292 85.3428 75.2995 85.3681 75.3696 85.3934C75.4707 85.43 75.5722 85.465 75.674 85.4978C75.7369 85.5182 75.8007 85.537 75.864 85.5558C75.9729 85.5882 76.0825 85.6177 76.1927 85.6446C76.2527 85.6592 76.3123 85.6725 76.3726 85.6855C76.4874 85.7105 76.6034 85.7322 76.7205 85.7503C76.7785 85.7594 76.8369 85.7675 76.8955 85.7746C77.0155 85.7896 77.1371 85.8009 77.2596 85.8084C77.3183 85.8119 77.3773 85.8145 77.4366 85.8155C77.5608 85.8191 77.6866 85.8174 77.8133 85.8123C77.8743 85.8093 77.9356 85.8054 77.9971 85.8009C78.1246 85.7909 78.2539 85.7756 78.3846 85.7558C78.4193 85.7503 78.4533 85.7494 78.4883 85.7438L78.4851 85.7387C78.5778 85.7228 78.6686 85.713 78.7629 85.6917C83.4929 84.6406 82.2162 80.5072 86.0932 79.3326C89.9822 78.1542 92.0963 81.6742 96.3698 79.7952C96.3698 79.7952 97.6679 79.2276 98.2255 77.7006C98.7095 76.3779 98.3396 74.8931 97.3787 73.8641Z" fill="#16606E"/>
<path d="M40.0269 68.3878C43.0175 68.3878 45.4419 65.9635 45.4419 62.9729C45.4419 59.9822 43.0175 57.5579 40.0269 57.5579C37.0362 57.5579 34.6119 59.9822 34.6119 62.9729C34.6119 65.9635 37.0362 68.3878 40.0269 68.3878Z" fill="#16606E"/>
<path d="M34.9875 73.7788C30.2193 73.7788 25.1742 73.3259 19.909 72.2532C19.056 72.0794 18.5088 71.2407 18.7001 70.391C18.8849 69.5715 19.6915 69.0463 20.5149 69.2142C39.2322 73.0296 55.0716 68.6812 65.1641 64.2858C73.8041 60.5232 79.7965 56.0996 82.1556 54.2102C82.7953 53.698 83.7208 53.7758 84.27 54.384L84.2736 54.3879C84.8704 55.0492 84.7904 56.0734 84.0966 56.6319C81.5997 58.6429 75.4818 63.1567 66.5111 67.0787C58.8199 70.4416 47.9248 73.7788 34.9875 73.7788Z" fill="white"/>
<path d="M38.6313 66.386C41.698 66.386 44.1841 63.8999 44.1841 60.8332C44.1841 57.7665 41.698 55.2804 38.6313 55.2804C35.5646 55.2804 33.0785 57.7665 33.0785 60.8332C33.0785 63.8999 35.5646 66.386 38.6313 66.386Z" fill="url(#paint6_radial_12601_2009)"/>
<path d="M37.2817 61.5111C38.4014 61.5111 39.3092 60.6033 39.3092 59.4836C39.3092 58.3638 38.4014 57.4561 37.2817 57.4561C36.1619 57.4561 35.2542 58.3638 35.2542 59.4836C35.2542 60.6033 36.1619 61.5111 37.2817 61.5111Z" fill="#FFB6B6"/>
<path d="M85.7726 45.3157C81.9931 42.3448 65.0917 28.4479 57.6206 11.915C50.1496 28.4479 33.2485 42.3448 29.4687 45.3157C28.2193 46.298 28.0656 48.1695 29.1922 49.2909C29.3539 49.4517 29.4736 49.5347 29.4736 49.5347C35.2088 51.9081 36.5374 47.0141 40.5052 48.1112C45.2955 49.4358 43.5789 53.5998 48.2625 54.3804C51.8224 54.9737 53.3059 50.0012 57.6203 50.2103C61.935 50.0009 63.4185 54.9737 66.9785 54.3804C71.6614 53.5998 69.9448 49.4358 74.7357 48.1112C78.7032 47.0141 80.0318 51.9081 85.7674 49.5347C85.7674 49.5347 85.887 49.4517 86.0485 49.2909C87.176 48.1695 87.0227 46.298 85.7726 45.3157Z" fill="url(#paint7_linear_12601_2009)"/>
<path d="M85.7727 45.3157C81.9933 42.3448 65.0918 28.4479 57.6208 11.915C57.6208 11.915 61.3671 26.4976 66.5912 49.1314C67.0755 51.2302 65.3314 53.2033 63.1949 52.9271L63.1606 52.9222C64.3095 53.8663 65.4536 54.6343 66.9789 54.3801C67.261 54.3331 67.5164 54.2721 67.755 54.2018C67.7554 54.2021 67.7554 54.2028 67.7557 54.2034C67.7667 54.2002 67.7768 54.1963 67.7881 54.1927C67.8552 54.1726 67.9188 54.1506 67.9829 54.1285C68.0371 54.11 68.0915 54.0916 68.1434 54.0718C68.2053 54.0481 68.266 54.0235 68.3253 53.9979C68.3729 53.9775 68.4206 53.9564 68.467 53.9347C68.5247 53.9078 68.5817 53.8802 68.6365 53.8513C68.6787 53.8296 68.7189 53.8066 68.7594 53.7839C68.8138 53.7531 68.8686 53.7223 68.9202 53.6899C68.9539 53.6688 68.986 53.6461 69.0187 53.6244C69.2194 53.4902 69.4 53.345 69.5631 53.1897C69.576 53.177 69.59 53.1653 69.6026 53.153C69.6519 53.1047 69.6992 53.0548 69.7456 53.0046C69.7631 52.9857 69.7809 52.9673 69.7981 52.9481C69.8438 52.8976 69.8873 52.846 69.9304 52.7938C69.9456 52.7757 69.9612 52.7572 69.9761 52.7387C70.0202 52.6839 70.0636 52.6282 70.1051 52.5718C70.1152 52.5581 70.1252 52.5448 70.1353 52.5312C70.4617 52.0851 70.7279 51.5998 71.0135 51.1135L71.0128 51.1129C71.7167 49.9153 72.5463 48.7164 74.7365 48.1109C78.704 47.0138 80.0325 51.9078 85.7682 49.5344C85.7682 49.5344 85.8878 49.4514 86.0492 49.2906C87.1761 48.1695 87.0228 46.298 85.7727 45.3157Z" fill="#16606E"/>
<path d="M72.7056 39.4122C57.4157 39.4122 47.889 33.8218 44.5209 31.437C43.7708 30.9057 43.6446 29.8452 44.2493 29.1527L44.1841 29.2276L44.2564 29.1443C44.7761 28.5468 45.6595 28.4373 46.3098 28.8895C49.6455 31.2101 60.4288 37.4949 77.7199 36.1077C78.5563 36.0405 79.2939 36.6549 79.3811 37.4897V37.4903C79.4712 38.3569 78.827 39.1275 77.9582 39.1979C76.1382 39.3447 74.3862 39.4122 72.7056 39.4122Z" fill="white"/>
<path d="M68.0428 55.958C71.1096 55.958 73.5956 53.4719 73.5956 50.4052C73.5956 47.3385 71.1096 44.8524 68.0428 44.8524C64.9761 44.8524 62.4901 47.3385 62.4901 50.4052C62.4901 53.4719 64.9761 55.958 68.0428 55.958Z" fill="url(#paint8_radial_12601_2009)"/>
<path d="M66.6928 51.0831C67.8125 51.0831 68.7202 50.1753 68.7202 49.0556C68.7202 47.9358 67.8125 47.0281 66.6928 47.0281C65.573 47.0281 64.6653 47.9358 64.6653 49.0556C64.6653 50.1753 65.573 51.0831 66.6928 51.0831Z" fill="#FFB6B6"/>
<path d="M66.7499 6.97631C65.422 6.5555 63.1423 5.90128 61.2814 5.7152C61.2814 5.7152 59.7454 2.84674 58.1815 0.312198C57.9247 -0.104066 57.3172 -0.104066 57.0604 0.312198C55.4968 2.84674 53.9605 5.7152 53.9605 5.7152C52.0996 5.90128 49.8196 6.5555 48.492 6.97631C47.9996 7.13224 47.8848 7.77739 48.2959 8.09023C50.2063 9.54327 53.0051 11.1659 53.0051 11.1659C52.582 12.294 51.9379 14.8163 51.5164 16.5387C51.3731 17.1252 52.0497 17.5625 52.5269 17.1926L57.621 13.2449L62.7147 17.1923C63.1922 17.5622 63.8691 17.1248 63.7255 16.5384C63.3041 14.8159 62.6599 12.294 62.2365 11.1655C62.2365 11.1655 65.0359 9.54294 66.9457 8.08991C67.3571 7.77739 67.242 7.13224 66.7499 6.97631Z" fill="url(#paint9_linear_12601_2009)"/>
<path d="M62.7145 17.1926C63.192 17.5625 63.8689 17.1252 63.7253 16.5387C63.3039 14.8163 62.6597 12.2944 62.2363 11.1659C62.2363 11.1659 65.0357 9.54327 66.9459 8.09023C67.3569 7.77739 67.2418 7.13257 66.7497 6.97631C65.4218 6.5555 63.1421 5.90128 61.2812 5.7152C61.2812 5.7152 59.7452 2.84674 58.1813 0.312198C58.0529 0.104066 57.8367 0 57.6208 0V13.2449L62.7145 17.1926Z" fill="#FD904F"/>
<defs>
<linearGradient id="paint0_linear_12601_2009" x1="55.7039" y1="132.37" x2="58.6201" y2="116.623" gradientUnits="userSpaceOnUse">
<stop offset="0.0054" stop-color="#F0C5A7"/>
<stop offset="1" stop-color="#C48D7A"/>
</linearGradient>
<linearGradient id="paint1_linear_12601_2009" x1="55.7023" y1="93.8777" x2="59.5443" y2="125.575" gradientUnits="userSpaceOnUse">
<stop offset="0.0054" stop-color="#209E9A"/>
<stop offset="1" stop-color="#16606E"/>
</linearGradient>
<radialGradient id="paint2_radial_12601_2009" cx="0" cy="0" r="1" gradientUnits="userSpaceOnUse" gradientTransform="translate(23.5936 104.495) scale(16.6964 16.6964)">
<stop offset="0.0054" stop-color="#E24F3B"/>
<stop offset="0.9483" stop-color="#C62C1C"/>
</radialGradient>
<radialGradient id="paint3_radial_12601_2009" cx="0" cy="0" r="1" gradientUnits="userSpaceOnUse" gradientTransform="translate(86.9492 90.411) scale(15.8346)">
<stop offset="0.0054" stop-color="#E24F3B"/>
<stop offset="0.9483" stop-color="#C62C1C"/>
</radialGradient>
<radialGradient id="paint4_radial_12601_2009" cx="0" cy="0" r="1" gradientUnits="userSpaceOnUse" gradientTransform="translate(78.3432 117.176) scale(14.1343)">
<stop offset="0.0054" stop-color="#E24F3B"/>
<stop offset="0.9483" stop-color="#C62C1C"/>
</radialGradient>
<linearGradient id="paint5_linear_12601_2009" x1="56.8618" y1="59.0353" x2="58.7829" y2="103.219" gradientUnits="userSpaceOnUse">
<stop offset="0.0054" stop-color="#209E9A"/>
<stop offset="1" stop-color="#16606E"/>
</linearGradient>
<radialGradient id="paint6_radial_12601_2009" cx="0" cy="0" r="1" gradientUnits="userSpaceOnUse" gradientTransform="translate(37.4485 59.5322) scale(12.9674)">
<stop offset="0.0054" stop-color="#E24F3B"/>
<stop offset="0.971" stop-color="#C62C1C"/>
</radialGradient>
<linearGradient id="paint7_linear_12601_2009" x1="53.806" y1="23.1587" x2="61.0099" y2="69.0238" gradientUnits="userSpaceOnUse">
<stop offset="1e-08" stop-color="#209E9A"/>
<stop offset="1" stop-color="#115760"/>
</linearGradient>
<radialGradient id="paint8_radial_12601_2009" cx="0" cy="0" r="1" gradientUnits="userSpaceOnUse" gradientTransform="translate(67.0184 49.4946) scale(15.0523)">
<stop offset="0.0054" stop-color="#E24F3B"/>
<stop offset="1" stop-color="#C62C1C"/>
</radialGradient>
<linearGradient id="paint9_linear_12601_2009" x1="55.9894" y1="4.57601" x2="62.7405" y2="19.7838" gradientUnits="userSpaceOnUse">
<stop offset="0.0054" stop-color="#FFF7A2"/>
<stop offset="1" stop-color="#FD904F"/>
</linearGradient>
</defs>
</svg>
