<svg width="356" height="334" viewBox="0 0 356 334" fill="none" xmlns="http://www.w3.org/2000/svg">
<g filter="url(#filter0_d_12601_2156)">
<g opacity="0.7">
<path d="M302.104 257.137H125.98C106.991 257.137 91.5441 272.585 91.5441 291.569C91.5441 310.556 106.991 326.001 125.98 326.001H302.104C321.093 326.001 336.54 310.556 336.54 291.569C336.539 272.585 321.093 257.137 302.104 257.137Z" fill="#4E342E"/>
<path d="M302.104 210.024H125.98C106.991 210.024 91.5441 225.468 91.5441 244.455C91.5441 263.439 106.991 278.884 125.98 278.884H302.104C321.093 278.884 336.54 263.439 336.54 244.455C336.539 225.469 321.093 210.024 302.104 210.024Z" fill="#3E2723"/>
<path d="M302.104 162.908H125.98C106.991 162.908 91.5441 178.356 91.5441 197.34C91.5441 216.326 106.991 231.772 125.98 231.772H302.104C321.093 231.772 336.54 216.327 336.54 197.34C336.539 178.356 321.093 162.908 302.104 162.908Z" fill="#4E342E"/>
<path d="M242.632 257.137H66.5077C47.5216 257.137 32.0748 272.585 32.0748 291.569C32.0748 310.556 47.5216 326.001 66.5077 326.001H242.632C261.62 326.001 277.068 310.556 277.068 291.569C277.068 272.585 261.621 257.137 242.632 257.137Z" fill="#5D4037"/>
<path d="M242.632 210.024H66.5077C47.5216 210.024 32.0748 225.468 32.0748 244.455C32.0748 263.439 47.5216 278.884 66.5077 278.884H242.632C261.62 278.884 277.068 263.439 277.068 244.455C277.068 225.469 261.621 210.024 242.632 210.024Z" fill="#795548"/>
<path d="M242.632 162.908H66.5077C47.5216 162.908 32.0748 178.356 32.0748 197.34C32.0748 216.326 47.5216 231.772 66.5077 231.772H242.632C261.62 231.772 277.068 216.327 277.068 197.34C277.068 178.356 261.621 162.908 242.632 162.908Z" fill="#5D4037"/>
<path d="M235.811 84.5593H73.3315C50.5831 84.5593 32.0748 103.065 32.0748 125.811V143.404C32.0748 166.15 50.5831 184.656 73.3315 184.656H235.811C258.56 184.656 277.068 166.15 277.068 143.404V125.811C277.068 103.065 258.559 84.5593 235.811 84.5593Z" fill="#795548"/>
<path d="M287.761 134.741L170.376 17.3692C166.012 13.0052 160.285 10.8468 154.565 10.8747C148.848 10.8493 143.124 13.0077 138.763 17.3692L21.3788 134.745C12.7066 143.416 12.7066 157.475 21.3788 166.145L21.3798 166.147C30.052 174.817 44.112 174.817 52.7852 166.145L154.57 64.3681L256.355 166.143C265.027 174.815 279.088 174.815 287.761 166.143C296.433 157.471 296.433 143.413 287.761 134.741Z" fill="white"/>
<path d="M272.06 183.52C263.224 183.52 254.913 180.08 248.666 173.832L154.569 79.7458L60.475 173.833C47.5718 186.732 26.5834 186.729 13.6909 173.837C7.44085 167.588 4 159.281 4 150.445C4 141.609 7.44085 133.302 13.6909 127.055L131.075 9.68026C137.351 3.39951 145.531 0.00882654 154.612 0.000194958C163.225 -0.0297617 171.779 3.39342 178.067 9.67924L295.451 127.052L295.453 127.052C308.349 139.949 308.349 160.932 295.453 173.83C289.203 180.079 280.896 183.52 272.06 183.52ZM154.564 21.7477C151.431 21.7477 148.59 22.9211 146.456 25.0556L29.0686 142.434C26.9287 144.575 25.7496 147.419 25.7496 150.445C25.7496 153.471 26.9282 156.316 29.0686 158.455C33.3539 162.738 40.812 162.737 45.0968 158.455L146.88 56.6792C150.958 52.6 158.18 52.6 162.258 56.6792L264.044 158.454C268.329 162.734 275.79 162.734 280.07 158.454C284.487 154.036 284.487 146.847 280.07 142.429L162.689 25.0577C160.551 22.9221 157.708 21.7477 154.675 21.7477C154.633 21.7477 154.596 21.7477 154.564 21.7477Z" fill="#1D1D1B"/>
<path d="M192.86 162.908H116.281C110.275 162.908 105.406 167.777 105.406 173.782V315.127C105.406 321.132 110.275 326 116.281 326H192.86C198.865 326 203.735 321.132 203.735 315.127V173.782C203.735 167.777 198.865 162.908 192.86 162.908Z" fill="#3E2723"/>
<path d="M342.31 127.053L224.925 9.68039C218.678 3.43366 210.378 0.00133896 201.59 0.00133896C201.537 0.00133896 201.482 0.00133896 201.426 0.00133896H157.047C152.913 0.00133896 149.138 2.34304 147.303 6.04903C145.466 9.75249 145.89 14.1779 148.397 17.4645L271.659 179.238C273.717 181.937 276.916 183.522 280.309 183.522H318.919C327.758 183.522 336.065 180.079 342.31 173.833C348.56 167.583 352 159.277 352 150.442C352 141.607 348.56 133.3 342.31 127.053Z" fill="#7FD7FE"/>
<path d="M295.45 127.054L178.066 9.68091C171.822 3.43419 163.525 0.00186364 154.787 0.00186364C154.729 0.00186364 154.67 0.00186364 154.615 0.00186364C145.877 -0.00879889 137.354 3.39712 131.072 9.68091L13.6909 127.054C7.44085 133.3 4 141.61 4 150.444C4 159.279 7.44085 167.589 13.6934 173.84C14.6653 174.809 15.7007 175.714 16.7839 176.546C29.9796 186.711 49.1993 185.11 61.4891 172.818L94.4514 139.863V147.211C94.4514 162.701 107.055 175.303 122.547 175.303C138.036 175.303 150.64 162.701 150.64 147.211V116.262C150.64 113.429 152.944 111.125 155.777 111.125C158.61 111.125 160.915 113.429 160.915 116.262V121.433C160.915 136.924 173.518 149.526 189.008 149.526C192.505 149.526 195.351 152.369 195.351 155.868V180.215C195.351 195.702 207.954 208.304 223.446 208.304C238.936 208.304 251.539 195.702 251.539 180.215V176.222C264.424 185.957 282.314 185.726 294.174 175.046C301 168.9 304.889 160.472 305.129 151.315C305.365 142.284 301.838 133.444 295.45 127.054Z" fill="#B2E4FB"/>
</g>
</g>
<defs>
<filter id="filter0_d_12601_2156" x="0" y="0" width="356" height="334.001" filterUnits="userSpaceOnUse" color-interpolation-filters="sRGB">
<feFlood flood-opacity="0" result="BackgroundImageFix"/>
<feColorMatrix in="SourceAlpha" type="matrix" values="0 0 0 0 0 0 0 0 0 0 0 0 0 0 0 0 0 0 127 0" result="hardAlpha"/>
<feOffset dy="4"/>
<feGaussianBlur stdDeviation="2"/>
<feComposite in2="hardAlpha" operator="out"/>
<feColorMatrix type="matrix" values="0 0 0 0 0 0 0 0 0 0 0 0 0 0 0 0 0 0 0.25 0"/>
<feBlend mode="normal" in2="BackgroundImageFix" result="effect1_dropShadow_12601_2156"/>
<feBlend mode="normal" in="SourceGraphic" in2="effect1_dropShadow_12601_2156" result="shape"/>
</filter>
</defs>
</svg>
