<svg width="365" height="348" viewBox="0 0 365 348" fill="none" xmlns="http://www.w3.org/2000/svg">
<g opacity="0.5">
<path d="M477.898 371.161C482.417 365.271 490.097 352.01 491.226 328.924C493.402 284.45 473.406 287.595 468.654 259.561C461.192 215.54 459.482 186.047 424.491 160.353C396.178 139.563 326.333 112.817 263.434 152.616C211.246 185.638 154.628 121.988 103.621 160.353C67.7336 187.345 88.7411 219.357 67.7336 244.896C53.1875 262.58 27.8941 269.678 22.9835 304.87C17.9188 341.166 36.7671 364.763 43.9423 372.276C39.7135 373.106 37.4713 373.974 37.4713 374.867C37.4713 380.88 139.085 385.754 264.431 385.754C389.778 385.754 491.391 380.88 491.391 374.867C491.391 373.566 486.628 372.318 477.898 371.161Z" fill="#E6D8D6"/>
<path d="M156.324 187.23L170.007 196.568" stroke="white" stroke-width="3" stroke-miterlimit="10" stroke-linecap="round" stroke-linejoin="round"/>
<path d="M156.324 196.568L170.007 187.23" stroke="white" stroke-width="3" stroke-miterlimit="10" stroke-linecap="round" stroke-linejoin="round"/>
<path d="M163.166 184.054V200.03" stroke="white" stroke-width="3" stroke-miterlimit="10" stroke-linecap="round" stroke-linejoin="round"/>
<path d="M250.413 170.173L253.627 183.107" stroke="white" stroke-width="3" stroke-miterlimit="10" stroke-linecap="round" stroke-linejoin="round"/>
<path d="M245.412 175.78L258.628 177.501" stroke="white" stroke-width="3" stroke-miterlimit="10" stroke-linecap="round" stroke-linejoin="round"/>
<path d="M256.221 171.93L247.665 181.523" stroke="white" stroke-width="3" stroke-miterlimit="10" stroke-linecap="round" stroke-linejoin="round"/>
<path d="M51.9676 295.8L57.6156 307.3" stroke="white" stroke-width="3" stroke-miterlimit="10" stroke-linecap="round" stroke-linejoin="round"/>
<path d="M48.4079 302.084L61.1752 301.016" stroke="white" stroke-width="3" stroke-miterlimit="10" stroke-linecap="round" stroke-linejoin="round"/>
<path d="M57.7819 296.271L51.6919 307.022" stroke="white" stroke-width="3" stroke-miterlimit="10" stroke-linecap="round" stroke-linejoin="round"/>
<path d="M161.849 270.922C161.849 270.922 133.308 227.878 126.126 221.542C118.944 215.206 107.166 221.643 111.471 229.314C115.776 236.986 115.539 243.129 110.869 244.946C101.309 248.664 81.4257 214.414 111.471 202.93C141.516 191.446 175.968 267.594 175.968 267.594L161.849 270.922Z" fill="white"/>
<path d="M161.849 270.922L175.968 267.594C175.968 267.594 172.682 260.333 167.257 250.635C164.485 253.158 160.484 257.597 157.392 264.267C160.113 268.303 161.849 270.922 161.849 270.922Z" fill="#FE434C"/>
<path d="M134.214 208.181C128.888 204.237 123.393 201.784 117.951 201.752C116.18 206.677 116.396 212.498 118.21 219.039C120.851 218.748 123.741 219.438 126.126 221.542C127.167 222.46 128.659 224.153 130.446 226.372C130.267 219.56 131.463 213.465 134.214 208.181Z" fill="#FE434C"/>
<path d="M139.486 238.417C142.452 242.541 145.545 246.958 148.455 251.167C149.973 244.471 152.75 238.713 157.228 234.219C154.272 229.818 151.066 225.428 147.683 221.363C144.181 226.371 141.271 231.9 139.486 238.417Z" fill="#FE434C"/>
<path d="M101.131 209.425C97.5844 213.082 95.9405 217.373 95.5983 221.693C100.365 226.277 105.509 228.099 110.908 228.054C110.215 226.047 110.591 224.176 111.643 222.659C106.94 219.2 103.472 214.761 101.131 209.425Z" fill="#FE434C"/>
<path d="M110.869 244.946C113.142 244.061 114.357 242.146 114.516 239.533C109.654 240.182 104.83 239.743 100.044 238.167C103.3 243.168 107.664 246.192 110.869 244.946Z" fill="#FE434C"/>
<path d="M73.8659 287.595L76.8287 370.252H152.429L150.051 285.648L73.8659 287.595Z" fill="#4BB4AD"/>
<path d="M91.0993 273.416L73.8659 287.595L150.051 285.648L162.962 269.678L91.0993 273.416Z" fill="#258A86"/>
<path d="M113.148 370.252L109.457 286.685L126.073 271.597" stroke="white" stroke-width="3" stroke-miterlimit="10" stroke-linecap="round" stroke-linejoin="round"/>
<path d="M83.7245 279.484L156.973 277.086" stroke="white" stroke-width="3" stroke-miterlimit="10" stroke-linecap="round" stroke-linejoin="round"/>
<path d="M74.8802 315.891L150.843 313.841" stroke="white" stroke-width="3" stroke-miterlimit="10" stroke-linecap="round" stroke-linejoin="round"/>
<path d="M118.414 278.285C118.414 278.285 91.9488 267.3 101.293 257.446C110.636 247.593 118.414 278.285 118.414 278.285Z" stroke="white" stroke-width="3" stroke-miterlimit="10" stroke-linecap="round" stroke-linejoin="round"/>
<path d="M107.578 341.371C103.161 339.672 95.8562 331.008 96.5357 322.513C97.3945 311.779 103.841 310.451 106.219 311.131C108.598 311.81 109.253 315.022 105.03 313.841C100.807 312.66 92.7938 306.374 94.8368 296.69C96.8799 287.007 104.608 284.519 108.104 284.628C111.601 284.738 113.015 290.744 107.409 290.065C101.802 289.385 93.4777 275.284 103.988 269.678C114.5 264.071 118.414 278.285 118.414 278.285" stroke="white" stroke-width="3" stroke-miterlimit="10" stroke-linecap="round" stroke-linejoin="round"/>
<path d="M118.414 278.304C118.414 278.304 118.754 258.038 127.418 261.436C136.083 264.834 118.414 278.304 118.414 278.304Z" stroke="white" stroke-width="3" stroke-miterlimit="10" stroke-linecap="round" stroke-linejoin="round"/>
<path d="M251.891 210.432H365.172L367.857 370.252H254.307L251.891 210.432Z" fill="#E1283A"/>
<path d="M391.211 370.252L386.379 195.668L265.313 198.889L251.891 210.432H365.172L367.857 370.252H391.211Z" fill="#FE434C"/>
<path d="M306.116 370.252L307.995 210.432L321.551 197.392" stroke="white" stroke-width="3" stroke-miterlimit="10" stroke-linecap="round" stroke-linejoin="round"/>
<path d="M259.126 204.21L377.52 202.11L379.912 368.579" stroke="white" stroke-width="3" stroke-miterlimit="10" stroke-linecap="round" stroke-linejoin="round"/>
<path d="M315.917 203.35C315.917 203.35 288.524 203.613 291.155 190.926C293.787 178.238 315.917 203.35 315.917 203.35Z" stroke="white" stroke-width="3" stroke-miterlimit="10" stroke-linecap="round" stroke-linejoin="round"/>
<path d="M252.877 275.659L366.145 268.368L387.798 246.937" stroke="white" stroke-width="3" stroke-miterlimit="10" stroke-linecap="round" stroke-linejoin="round"/>
<path d="M315.917 203.35C315.343 202.712 292.257 168.084 304.2 161.041C316.143 153.998 315.917 203.35 315.917 203.35Z" stroke="white" stroke-width="3" stroke-miterlimit="10" stroke-linecap="round" stroke-linejoin="round"/>
<path d="M315.917 203.35C315.917 203.35 313.923 166.094 328.009 169.845C342.095 173.596 315.917 203.35 315.917 203.35Z" stroke="white" stroke-width="3" stroke-miterlimit="10" stroke-linecap="round" stroke-linejoin="round"/>
<path d="M315.917 203.35C315.917 203.35 334.358 177.468 343.856 190.132C351.435 200.238 315.917 203.35 315.917 203.35Z" stroke="white" stroke-width="3" stroke-miterlimit="10" stroke-linecap="round" stroke-linejoin="round"/>
<path d="M415.081 287.595H321.551V370.252H415.081V287.595Z" fill="#4BB4AD"/>
<path d="M426.279 370.252V273.546L335.051 275.659L321.551 287.595H415.081V370.252H426.279Z" fill="#258A86"/>
<path d="M329.334 280.714L421.319 279.769L421.998 370.252" stroke="white" stroke-width="3" stroke-miterlimit="10" stroke-linecap="round" stroke-linejoin="round"/>
<path d="M321.551 313.782H415.081L426.279 306.728" stroke="white" stroke-width="3" stroke-miterlimit="10" stroke-linecap="round" stroke-linejoin="round"/>
<path d="M377.223 280.222C377.223 280.222 343.941 269.799 355.363 256.843C366.785 243.886 377.223 280.222 377.223 280.222Z" stroke="white" stroke-width="3" stroke-miterlimit="10" stroke-linecap="round" stroke-linejoin="round"/>
<path d="M150.051 285.648C150.051 285.648 196.862 219.29 216.189 219.29C235.517 219.29 293.231 285.648 293.231 285.648V370.252C293.231 370.252 152.462 371.421 152.429 370.252C152.396 369.083 150.051 285.648 150.051 285.648Z" fill="#CC9966"/>
<path d="M165.723 325.055C165.186 321.296 165.186 294.99 167.602 275.662C170.018 256.334 176.622 238.891 178.339 238.349C208.941 228.685 295.915 230.028 290.546 241.839C274.22 277.756 271.756 327.739 268.803 332.839C265.85 337.94 165.723 325.055 165.723 325.055Z" fill="white"/>
<path d="M187.074 253.919C187.074 253.919 217.438 245.865 263.434 257.945" stroke="#E6D8D6" stroke-width="4" stroke-miterlimit="10" stroke-linecap="round" stroke-linejoin="round"/>
<path d="M182.632 269.52C182.632 269.52 212.996 261.467 258.993 273.546" stroke="#E6D8D6" stroke-width="4" stroke-miterlimit="10" stroke-linecap="round" stroke-linejoin="round"/>
<path d="M180.711 286.896C180.711 286.896 211.074 278.843 257.071 290.923" stroke="#E6D8D6" stroke-width="4" stroke-miterlimit="10" stroke-linecap="round" stroke-linejoin="round"/>
<path d="M176.622 302.701C176.622 302.701 206.986 294.648 252.982 306.728" stroke="#E6D8D6" stroke-width="4" stroke-miterlimit="10" stroke-linecap="round" stroke-linejoin="round"/>
<path d="M150.051 285.648C150.051 285.648 210.015 319.954 214.579 329.887C219.142 339.819 152.429 370.252 152.429 370.252L150.051 285.648Z" fill="#F1AF78"/>
<path d="M293.231 285.648C293.231 285.648 223.437 304.385 225.048 329.618C226.658 354.851 293.231 370.252 293.231 370.252V285.648Z" fill="#F1AF78"/>
<path d="M152.429 370.252C152.429 370.252 187.109 316.927 214.802 315.891C242.496 314.854 293.231 370.252 293.231 370.252H152.429Z" fill="#CC9966"/>
<path d="M240.678 305.97C237.425 307.289 234.253 307.181 231.207 304.799C229.283 308.711 226.701 308.703 223.787 306.728C223.399 310.917 220.925 313.268 216.367 313.782C217.059 316.442 216.362 318.943 213.535 321.202C215.928 324.163 215.572 327.552 214.799 331.006C218.406 328.223 222.27 327.56 226.521 330.087C226.383 325.547 229.501 324.796 234.625 326.376C234.869 322.145 237.334 319.698 242.533 319.444C240.2 317.08 240.265 314.775 243.021 312.537C239.688 310.192 238.843 307.999 240.678 305.97Z" fill="#258A86"/>
<path d="M253.949 346.569C251.161 344.437 247.799 341.625 248.305 337.792C243.958 338.122 240.444 335.824 240.666 332.311C236.86 334.104 233.578 333.167 230.82 329.501C228.881 331.449 226.372 332.118 222.991 330.83C221.655 334.396 218.555 335.81 215.187 336.898C219.416 338.592 221.95 341.584 221.932 346.529C225.773 344.104 228.004 346.409 229.244 351.626C233.013 349.687 236.374 350.568 239.232 354.918C240.084 351.707 243.805 350.318 247.133 351.557C247.46 347.494 251.27 346.019 253.949 346.569Z" fill="#258A86"/>
<path d="M242.269 343.576C216.757 332.152 197.746 337.959 197.746 337.959" stroke="#303E4E" stroke-width="2" stroke-miterlimit="10" stroke-linecap="round" stroke-linejoin="round"/>
<path d="M235.555 309.978C211.732 325.014 206.855 346.569 206.855 346.569" stroke="#303E4E" stroke-width="2" stroke-miterlimit="10" stroke-linecap="round" stroke-linejoin="round"/>
<path d="M215.187 345.22C214.414 344.83 202.209 310.255 202.209 310.255" stroke="#303E4E" stroke-width="2" stroke-miterlimit="10" stroke-linecap="round" stroke-linejoin="round"/>
<path d="M211.778 312.537L208.241 327.13" stroke="#303E4E" stroke-width="2" stroke-miterlimit="10" stroke-linecap="round" stroke-linejoin="round"/>
<path d="M194.984 317.902C195.375 318.077 207.142 324.085 207.142 324.085" stroke="#303E4E" stroke-width="2" stroke-miterlimit="10" stroke-linecap="round" stroke-linejoin="round"/>
<path d="M212.799 313.528C214.63 313.528 216.114 312.043 216.114 310.212C216.114 308.381 214.63 306.896 212.799 306.896C210.967 306.896 209.483 308.381 209.483 310.212C209.483 312.043 210.967 313.528 212.799 313.528Z" fill="#FE434C"/>
<path d="M201.061 311.43C202.893 311.43 204.377 309.946 204.377 308.114C204.377 306.283 202.893 304.799 201.061 304.799C199.23 304.799 197.746 306.283 197.746 308.114C197.746 309.946 199.23 311.43 201.061 311.43Z" fill="#FE434C"/>
<path d="M194.984 321.218C196.815 321.218 198.3 319.733 198.3 317.902C198.3 316.071 196.815 314.586 194.984 314.586C193.153 314.586 191.668 316.071 191.668 317.902C191.668 319.733 193.153 321.218 194.984 321.218Z" fill="#FE434C"/>
<path d="M50.9085 335.362C50.9085 335.362 42.8887 328.05 48.7548 323.994C54.6208 319.937 58.3943 330.492 58.3943 330.492L50.9085 335.362Z" fill="#303E4E"/>
<path d="M308.852 323.066C308.852 323.066 308.432 311.181 316.106 312.666C323.779 314.151 318.404 325.196 318.404 325.196L308.852 323.066Z" fill="#303E4E"/>
<path d="M352.649 343.582C352.649 343.582 355.478 335.45 360.268 338.461C365.059 341.473 358.539 347.521 358.539 347.521L352.649 343.582Z" fill="#303E4E"/>
<path d="M48.7548 323.994C48.7548 323.994 24.886 304.505 32.0835 298.677C39.281 292.849 48.7548 323.994 48.7548 323.994Z" stroke="#303E4E" stroke-width="2" stroke-miterlimit="10" stroke-linecap="round" stroke-linejoin="round"/>
<path d="M316.106 312.666C316.106 312.666 313.075 279.035 323.156 280.205C333.237 281.376 316.106 312.666 316.106 312.666Z" stroke="#303E4E" stroke-width="2" stroke-miterlimit="10" stroke-linecap="round" stroke-linejoin="round"/>
<path d="M360.268 338.461C360.268 338.461 367.029 314.967 373.527 318.397C380.025 321.827 360.268 338.461 360.268 338.461Z" stroke="#303E4E" stroke-width="2" stroke-miterlimit="10" stroke-linecap="round" stroke-linejoin="round"/>
<path d="M67.7335 376.53C81.0201 376.53 91.791 365.759 91.791 352.473C91.791 339.186 81.0201 328.415 67.7335 328.415C54.4469 328.415 43.676 339.186 43.676 352.473C43.676 365.759 54.4469 376.53 67.7335 376.53Z" fill="#FE434C"/>
<path d="M308.346 375.72C322.906 375.72 334.709 363.917 334.709 349.357C334.709 334.798 322.906 322.995 308.346 322.995C293.786 322.995 281.983 334.798 281.983 349.357C281.983 363.917 293.786 375.72 308.346 375.72Z" fill="#FE434C"/>
<path d="M345.423 380.282C355.964 380.282 364.509 371.737 364.509 361.196C364.509 350.654 355.964 342.109 345.423 342.109C334.882 342.109 326.336 350.654 326.336 361.196C326.336 371.737 334.882 380.282 345.423 380.282Z" fill="#E1283A"/>
<path d="M52.9858 345.363L80.8741 361.16" stroke="white" stroke-width="2" stroke-miterlimit="10" stroke-linecap="round" stroke-linejoin="round"/>
<path d="M52.3296 342.152L53.2161 345.702L49.4597 346.153" stroke="white" stroke-width="2" stroke-miterlimit="10" stroke-linecap="round" stroke-linejoin="round"/>
<path d="M56.5591 342.643L58.0458 348.597L51.746 349.353" stroke="white" stroke-width="2" stroke-miterlimit="10" stroke-linecap="round" stroke-linejoin="round"/>
<path d="M53.3387 361.05L80.5669 345.498" stroke="white" stroke-width="2" stroke-miterlimit="10" stroke-linecap="round" stroke-linejoin="round"/>
<path d="M84.0006 346.406L80.3933 345.548L81.5498 342.016" stroke="white" stroke-width="2" stroke-miterlimit="10" stroke-linecap="round" stroke-linejoin="round"/>
<path d="M81.1766 349.979L75.1272 348.54L77.0666 342.616" stroke="white" stroke-width="2" stroke-miterlimit="10" stroke-linecap="round" stroke-linejoin="round"/>
<path d="M67.4183 369.026L66.7582 337.676" stroke="white" stroke-width="2" stroke-miterlimit="10" stroke-linecap="round" stroke-linejoin="round"/>
<path d="M64.2139 335.198L66.8048 337.85L69.2397 335.042" stroke="white" stroke-width="2" stroke-miterlimit="10" stroke-linecap="round" stroke-linejoin="round"/>
<path d="M62.6013 339.457L66.9461 343.905L71.0295 339.197" stroke="white" stroke-width="2" stroke-miterlimit="10" stroke-linecap="round" stroke-linejoin="round"/>
<path d="M71.5394 355.873C72.9327 353.413 72.0087 350.256 69.4754 348.821C66.9422 347.386 63.7592 348.217 62.3659 350.676C60.9726 353.136 61.8966 356.293 64.4298 357.728C66.9631 359.163 70.1461 358.332 71.5394 355.873Z" stroke="white" stroke-width="2" stroke-miterlimit="10" stroke-linecap="round" stroke-linejoin="round"/>
<path d="M344.874 348.723L345.97 373.627" stroke="white" stroke-width="2" stroke-miterlimit="10" stroke-linecap="round" stroke-linejoin="round"/>
<path d="M346.72 346.966L344.745 349.015L342.898 346.725" stroke="white" stroke-width="2" stroke-miterlimit="10" stroke-linecap="round" stroke-linejoin="round"/>
<path d="M290.112 331.586C290.112 331.586 294.064 328.675 297.54 329.733C301.015 330.79 299.917 335.061 303.249 336.27C306.581 337.479 309.523 333.399 312.812 334.306C316.101 335.213 315.828 339.897 318.684 340.652C321.54 341.408 325.328 337.91 327.715 338.461C331.337 339.297 332.511 344.724 332.511 344.724" stroke="white" stroke-width="2" stroke-miterlimit="10" stroke-linecap="round" stroke-linejoin="round"/>
<path d="M291.28 343.594C292.693 343.594 293.838 342.448 293.838 341.035C293.838 339.622 292.693 338.477 291.28 338.477C289.867 338.477 288.721 339.622 288.721 341.035C288.721 342.448 289.867 343.594 291.28 343.594Z" stroke="white" stroke-width="2" stroke-miterlimit="10" stroke-linecap="round" stroke-linejoin="round"/>
<path d="M307.961 349.553C310.063 349.553 311.767 347.848 311.767 345.746C311.767 343.644 310.063 341.94 307.961 341.94C305.858 341.94 304.154 343.644 304.154 345.746C304.154 347.848 305.858 349.553 307.961 349.553Z" stroke="white" stroke-width="2" stroke-miterlimit="10" stroke-linecap="round" stroke-linejoin="round"/>
<path d="M324.11 353.594C325.523 353.594 326.668 352.449 326.668 351.036C326.668 349.623 325.523 348.477 324.11 348.477C322.696 348.477 321.551 349.623 321.551 351.036C321.551 352.449 322.696 353.594 324.11 353.594Z" stroke="white" stroke-width="2" stroke-miterlimit="10" stroke-linecap="round" stroke-linejoin="round"/>
</g>
</svg>
