<?xml version="1.0" standalone="no"?>
<!DOCTYPE svg PUBLIC "-//W3C//DTD SVG 20010904//EN"
 "http://www.w3.org/TR/2001/REC-SVG-20010904/DTD/svg10.dtd">
<svg version="1.0" xmlns="http://www.w3.org/2000/svg"
 width="805.000000pt" height="805.000000pt" viewBox="0 0 805.000000 805.000000"
 preserveAspectRatio="xMidYMid meet">
<metadata>
Created by potrace 1.14, written by Peter Selinger 2001-2017
</metadata>
<g transform="translate(0.000000,805.000000) scale(0.100000,-0.100000)"
fill="#000000" stroke="none">
<path d="M4002 8034 c-12 -8 -22 -21 -22 -29 0 -7 -4 -15 -8 -17 -10 -4 -102
-164 -102 -178 0 -5 -4 -10 -8 -10 -5 0 -19 -22 -32 -49 -24 -52 -29 -54 -130
-67 -14 -1 -52 -10 -85 -20 -33 -9 -64 -17 -70 -19 -77 -17 -95 -28 -95 -57 0
-19 21 -48 35 -48 4 0 24 -13 45 -30 21 -16 41 -30 45 -30 3 0 13 -6 20 -12
31 -28 45 -38 50 -38 13 1 95 -53 95 -63 0 -7 -9 -44 -21 -82 -62 -212 -68
-254 -43 -284 5 -6 68 21 79 34 22 25 195 155 195 147 0 -5 -11 -29 -25 -53
-13 -24 -31 -57 -40 -74 -62 -123 -318 -501 -347 -513 -4 -2 -8 -9 -8 -15 0
-7 -14 -26 -30 -44 -17 -18 -30 -36 -30 -42 0 -5 -4 -11 -9 -13 -4 -1 -32 -31
-60 -66 -44 -53 -55 -61 -71 -52 -78 42 -168 -57 -118 -131 14 -21 11 -26 -41
-83 -93 -100 -362 -366 -456 -451 -49 -44 -96 -87 -105 -95 -8 -9 -43 -38 -75
-66 -33 -27 -71 -59 -85 -71 -14 -11 -53 -44 -87 -72 -35 -28 -70 -65 -79 -82
-36 -70 -8 -169 57 -201 53 -26 142 -41 198 -34 71 9 65 7 153 49 43 20 81 37
83 37 2 0 -12 -30 -31 -67 -20 -38 -43 -83 -52 -100 -9 -18 -20 -33 -24 -33
-4 0 -8 -5 -8 -10 0 -9 -146 -239 -168 -265 -4 -6 -35 -46 -67 -90 -62 -84
-225 -296 -235 -305 -3 -3 -21 -25 -40 -50 -19 -25 -37 -47 -40 -50 -3 -3 -32
-36 -65 -75 -33 -38 -64 -73 -70 -77 -5 -4 -7 -8 -3 -8 4 0 -5 -13 -20 -28
-15 -15 -39 -42 -54 -60 -23 -27 -32 -31 -55 -26 -51 12 -114 7 -133 -11 -37
-33 -41 -70 -14 -120 l24 -46 -43 -43 c-83 -84 -108 -132 -108 -206 1 -60 3
-68 30 -116 20 -37 91 -94 124 -100 7 -2 23 -6 37 -10 44 -11 119 -13 156 -2
52 14 74 18 74 12 0 -8 -122 -187 -142 -208 -10 -11 -18 -23 -18 -27 0 -4 -6
-14 -12 -21 -7 -7 -33 -40 -57 -73 -24 -33 -45 -61 -47 -63 -1 -2 -17 3 -36
11 -85 36 -156 -56 -107 -138 l18 -31 -32 -37 c-18 -20 -42 -49 -54 -64 -12
-15 -36 -43 -52 -61 -17 -18 -31 -35 -31 -37 0 -3 -17 -23 -37 -46 -66 -73
-84 -92 -141 -158 -32 -35 -73 -80 -92 -101 -19 -21 -78 -84 -130 -140 -52
-57 -170 -180 -262 -274 -141 -144 -170 -179 -185 -221 -53 -159 20 -303 178
-345 54 -15 180 -15 239 -1 25 7 52 13 61 15 9 3 54 16 99 30 114 36 142 41
240 41 68 -1 93 -5 126 -22 53 -28 103 -87 148 -174 74 -143 110 -184 191
-219 43 -19 63 -21 140 -17 92 5 132 15 195 50 34 18 140 95 150 108 14 19
125 70 176 82 104 24 234 10 308 -31 41 -23 67 -45 160 -134 99 -94 119 -110
175 -136 105 -51 245 -49 359 3 29 14 54 25 55 25 2 0 4 -130 4 -288 0 -159 3
-302 7 -318 23 -95 100 -170 194 -189 47 -9 500 -13 510 -5 1 1 5 3 10 4 60
15 162 106 162 145 0 11 4 22 9 25 12 8 20 66 9 66 -5 0 -6 6 -1 13 10 16 11
66 1 93 -4 12 -4 25 0 28 3 4 6 99 7 211 0 113 3 205 8 205 4 0 20 -6 37 -15
46 -24 140 -42 205 -39 33 1 61 3 63 4 3 3 11 5 54 14 21 5 42 14 49 22 6 8
17 14 24 14 6 0 20 9 30 20 19 21 39 22 41 2 1 -7 2 -13 4 -14 1 -2 3 -12 5
-22 7 -37 47 -105 86 -144 72 -72 168 -107 271 -99 228 18 378 251 298 463 -6
15 -9 28 -7 30 2 3 81 -55 152 -112 88 -70 254 -103 368 -74 52 14 132 78 157
126 50 95 108 194 130 220 14 17 52 43 83 58 48 23 70 27 129 25 40 -1 90 -8
112 -14 23 -7 43 -12 46 -12 3 0 43 -12 90 -27 201 -63 329 -67 437 -15 88 42
147 148 138 244 -2 22 -4 40 -5 40 -1 0 -3 10 -6 23 -8 42 -51 97 -178 224
-69 70 -126 130 -126 134 0 4 7 12 15 18 38 28 32 128 -10 141 -8 3 -23 8 -32
12 -10 3 -20 6 -23 6 -3 -1 -28 -4 -57 -8 l-52 -6 -43 47 c-24 26 -61 66 -83
90 -22 23 -60 65 -84 93 -24 29 -58 67 -75 85 -17 17 -53 59 -81 92 -27 32
-55 64 -60 70 -6 6 -27 31 -46 54 -18 23 -39 47 -45 54 -5 6 -56 70 -112 141
-56 72 -108 137 -115 145 -7 8 -31 40 -52 70 -22 30 -43 57 -47 58 -5 2 -8 9
-8 16 0 7 -9 21 -20 31 -11 10 -20 24 -20 32 0 7 -4 13 -10 13 -5 0 -10 7 -10
15 0 8 -4 15 -8 15 -7 0 -42 52 -42 63 0 3 15 1 33 -4 62 -20 158 -18 223 3
71 23 119 64 146 126 42 94 20 181 -70 278 -73 80 -189 207 -209 230 -10 12
-38 45 -63 74 -25 29 -53 62 -63 74 -10 11 -28 32 -40 46 -12 14 -55 66 -95
115 -40 50 -90 110 -110 134 -20 24 -39 49 -41 55 -2 6 -7 13 -10 16 -9 7 -52
61 -76 94 -11 16 -39 52 -62 81 l-43 53 29 25 c33 27 52 82 40 113 -13 37 -60
66 -94 60 -16 -4 -35 -7 -42 -8 -7 -1 -14 -7 -17 -15 -12 -29 -20 -19 -110
125 -43 69 -118 212 -111 212 3 0 25 -11 48 -23 82 -46 154 -66 230 -63 80 3
154 22 178 46 71 72 67 185 -10 245 -56 43 -251 209 -320 272 -25 22 -62 55
-81 71 l-35 31 21 23 c30 33 36 67 18 104 -21 44 -56 56 -143 50 l-72 -5 -92
93 c-78 79 -132 136 -262 282 -26 29 -50 57 -105 124 -25 30 -49 60 -55 66 -5
6 -21 26 -35 44 -14 18 -50 66 -80 106 -30 40 -75 103 -100 139 -25 37 -49 72
-55 79 -5 6 -16 23 -24 36 -8 14 -43 70 -76 125 -80 130 -140 242 -123 229 7
-6 54 -42 103 -80 50 -38 96 -74 103 -81 24 -23 54 -26 72 -7 17 18 17 23 -6
114 -14 52 -27 102 -31 110 -3 8 -5 18 -5 23 1 4 -4 23 -12 42 -8 19 -12 35
-9 35 3 0 0 6 -6 14 -9 11 2 22 54 55 37 22 70 41 75 41 4 0 10 3 12 8 2 4 32
27 68 51 36 25 68 50 72 55 15 22 7 46 -19 59 -43 22 -202 62 -284 71 -39 5
-44 10 -85 84 -81 146 -148 253 -164 262 -11 6 -24 4 -38 -6z"/>
</g>
</svg>
